<svg xmlns="http://www.w3.org/2000/svg" viewBox="0 0 315.03 74.86"><defs><style>.cls-1{fill:#fff;}.cls-2{fill:#a0a2a4;}.cls-3{fill:#82cde0;}</style></defs><g id="Layer_2" data-name="Layer 2"><g id="Layer_2-2" data-name="Layer 2"><polygon class="cls-1" points="108.29 26.55 107.98 26.55 103.53 33.07 91.63 33.07 91.63 3.36 95.1 0.88 95.1 0.57 83.61 0.57 83.61 0.88 87.02 3.36 87.02 32.03 83.61 34.52 83.61 34.83 108.29 34.83 108.29 26.55"></polygon><polygon class="cls-1" points="112.53 0.88 115.95 3.36 115.95 32.03 112.53 34.52 112.53 34.83 123.97 34.83 123.97 34.52 120.56 32.03 120.56 3.36 123.97 0.88 123.97 0.57 112.53 0.57 112.53 0.88"></polygon><path class="cls-1" d="M145.5,35.4l.48,0h19.33V33.59H153a17.86,17.86,0,0,0,9.54-16.2C162.58,7.14,154.92,0,145.5,0s-17,7.81-17,18.11A16.85,16.85,0,0,0,145.5,35.4Zm0-33.64c6.52,0,12,6.21,12,16,0,9.34-5.06,15.38-11.24,15.84h-1v0c-6.4-.16-11.64-6.22-11.64-15.87S138.93,1.76,145.5,1.76Z"></path><path class="cls-1" d="M169.72,22.72c0,8.69,6,12.68,14.38,12.68,7.77,0,13-5.38,13-12.68V3.36L200.51.88V.57h-9V.88L195,3.36V22.62c0,5.84-3.72,9.93-10,9.93s-10.61-3-10.61-9.88V3.36L177.79.88V.57H166.25V.88l3.47,2.48Z"></path><polygon class="cls-1" points="204.34 0.88 207.75 3.36 207.75 32.03 204.34 34.52 204.34 34.83 215.77 34.83 215.77 34.52 212.36 32.03 212.36 3.36 215.77 0.88 215.77 0.57 204.34 0.57 204.34 0.88"></polygon><path class="cls-1" d="M253.5,17.44c0-11-8.7-16.87-19.3-16.87H220.43V.88l3.42,2.48V32l-3.42,2.49v.31h15.11C246.36,34.83,253.5,27.58,253.5,17.44ZM228.45,31.93V2.23h5.64c8,0,14.29,5.89,14.29,15.26,0,9.68-5.28,15.68-12.94,15.68A16.37,16.37,0,0,1,228.45,31.93Z"></path><path class="cls-1" d="M119.88,42.82l3.42-2.48V40h-6.57l-13.2,25.2L90.23,40h-6v.31A24.19,24.19,0,0,1,87,44.27v27L83.25,74v.31h9.47V74l-3.78-2.75V47.12l12.94,24.17h.46l12.94-24.38V71.23L111.5,74v.31h12.16V74l-3.78-2.75Z"></path><polygon class="cls-1" points="148.24 72.53 136.34 72.53 136.34 56.9 147.52 56.9 149.85 60.42 150.11 60.42 150.11 51.62 149.85 51.62 147.52 55.19 136.34 55.19 136.34 41.74 147.21 41.74 150.62 46.08 150.93 46.08 150.93 40.03 128.32 40.03 128.32 40.34 131.74 42.82 131.74 71.49 128.32 73.98 128.32 74.29 152.18 74.29 152.18 67.14 151.87 67.14 148.24 72.53"></polygon><path class="cls-1" d="M180.17,66.42,174,56c2.64-1.24,6.27-4.09,6.27-8.7,0-4.19-3.57-7.29-10.3-7.29H157.2v.31l3.41,2.48V71.49L157.2,74v.31h12V74l-3.93-2.49V57.11h4.4l6.72,11.59c2.95,5.12,5.49,5.9,8.33,5.9a16,16,0,0,0,2.59-.31V74C186.43,73.67,183.38,71.85,180.17,66.42ZM169.93,55.55h-4.71V41.63h3.31c3.78,0,7.14,2,7.14,7C175.67,52.29,173.19,55.55,169.93,55.55Z"></path><path class="cls-1" d="M204.29,73.1c-7.51,0-13.56-6.73-13.56-16.2,0-8.44,4.91-15.68,13.2-15.68a12.33,12.33,0,0,1,10.5,5.33h.26V41a41.61,41.61,0,0,0-10.56-1.5c-11.64,0-18.52,8.59-18.52,17.9,0,10.41,7.86,17.5,18.52,17.5a27.19,27.19,0,0,0,11.28-2.38V67.4h-.25C213.65,69.27,210.19,73.1,204.29,73.1Z"></path><path class="cls-1" d="M245,40.34l3.47,2.48V62.07c0,5.85-3.73,9.94-10,9.94S227.78,69,227.78,62.13V42.82l3.47-2.48V40H219.71v.31l3.47,2.48V62.18c0,8.69,6,12.68,14.38,12.68,7.76,0,13-5.39,13-12.68V42.82L254,40.34V40h-9Z"></path><path class="cls-1" d="M280.77,66.42,274.61,56c2.64-1.24,6.27-4.09,6.27-8.7,0-4.19-3.58-7.29-10.3-7.29H257.79v.31l3.42,2.48V71.49L257.79,74v.31h12V74l-3.93-2.49V57.11h4.39l6.73,11.59c2.95,5.12,5.49,5.9,8.33,5.9a16,16,0,0,0,2.59-.31V74C287,73.67,284,71.85,280.77,66.42ZM270.53,55.55h-4.71V41.63h3.31c3.78,0,7.14,2,7.14,7C276.27,52.29,273.79,55.55,270.53,55.55Z"></path><polygon class="cls-1" points="306.54 40.03 306.54 40.34 310.01 42.82 301.57 55.76 293.14 42.82 296.61 40.34 296.61 40.03 284.96 40.03 284.96 40.34 287.81 42.82 298.06 58.14 298.06 71.49 294.64 73.98 294.64 74.29 306.08 74.29 306.08 73.98 302.66 71.49 302.66 57.26 312.13 42.82 315.03 40.34 315.03 40.03 306.54 40.03"></polygon><path class="cls-2" d="M18.13,1.26H0V19.38A18.13,18.13,0,1,0,18.13,1.26Z"></path><path class="cls-2" d="M72.5,19.38A18.12,18.12,0,0,0,54.38,1.26H36.25V19.38a18.13,18.13,0,1,0,36.25,0Z"></path><path class="cls-2" d="M18.13,37.51H0V55.63A18.13,18.13,0,1,0,18.13,37.51Z"></path><circle class="cls-3" cx="54.38" cy="55.63" r="18.13" transform="translate(-16.22 22.96) rotate(-20.82)"></circle></g></g></svg>
